<svg width="24" height="24" viewBox="0 0 24 24" fill="none" xmlns="http://www.w3.org/2000/svg">
  <rect x="1" y="1" width="22" height="22" rx="7" fill="#12324A"/>
  <circle cx="11.5" cy="12.25" r="7.75" fill="#FFD85A"/>
  <path fill-rule="evenodd" clip-rule="evenodd" d="M8 6.25H12.35C15.2 6.25 17 7.65 17 9.85C17 11.05 16.35 12.05 15.2 12.65C16.65 13.2 17.45 14.35 17.45 15.8C17.45 18.25 15.45 19.75 12.25 19.75H8V6.25ZM11 8.75V11.5H12.15C13.35 11.5 14 11 14 10.1C14 9.2 13.35 8.75 12.15 8.75H11ZM11 14V17.25H12.25C13.65 17.25 14.4 16.7 14.4 15.6C14.4 14.55 13.65 14 12.25 14H11Z" fill="#12324A"/>
  <circle cx="19" cy="5" r="2.25" fill="#FF7D55"/>
</svg>
